<svg width="179" height="198" viewBox="0 0 179 198" fill="none" xmlns="http://www.w3.org/2000/svg">
<g clip-path="url(#clip0_2_156)">
<path d="M25.9288 152.292L75.6143 140.371L61.095 189.361L25.9288 152.292Z" fill="white"/>
<rect y="10.8066" width="169" height="155" rx="22" transform="rotate(-3.66624 0 10.8066)" fill="white"/>
<path d="M80.5328 87.1197C82.4116 89.6315 84.8087 91.7099 87.5614 93.2138C90.3141 94.7178 93.3581 95.6121 96.4869 95.8362C99.6156 96.0603 102.756 95.6088 105.695 94.5125C108.634 93.4162 111.303 91.7007 113.52 89.4822L126.645 76.3572C130.63 72.2316 132.835 66.7059 132.785 60.9703C132.735 55.2348 130.435 49.7482 126.379 45.6924C122.323 41.6366 116.836 39.3361 111.101 39.2862C105.365 39.2364 99.8397 41.4413 95.714 45.426L88.189 52.9072" stroke="#132742" stroke-width="5" stroke-linecap="round" stroke-linejoin="round"/>
<path d="M98.0328 78.3698C96.1539 75.8579 93.7568 73.7796 91.0041 72.2756C88.2514 70.7717 85.2074 69.8774 82.0787 69.6533C78.9499 69.4292 75.8096 69.8807 72.8706 70.977C69.9317 72.0733 67.2629 73.7888 65.0453 76.0073L51.9203 89.1323C47.9356 93.2579 45.7307 98.7836 45.7805 104.519C45.8304 110.255 48.1309 115.741 52.1867 119.797C56.2425 123.853 61.7291 126.153 67.4646 126.203C73.2002 126.253 78.7258 124.048 82.8515 120.064L90.3328 112.582" stroke="#132742" stroke-width="5" stroke-linecap="round" stroke-linejoin="round"/>
</g>
<defs>
<clipPath id="clip0_2_156">
<rect width="178.566" height="197.341" fill="white"/>
</clipPath>
</defs>
</svg>
